# xmcd
# 
# Track frame offsets:
#     150
#     3875
#     19302
#     47955
#     66880
#     94312
#     113617
#     138037
#     160717
#     188927
#     206537
#     222707
#     247995
#     269535
# 
# Disc length: 4072
# 
# Revision: 23
# Processed by: cddbd v1.5.2PL0 Copyright (c) Steve Scherf et al.
# Submitted via: fre:ac v1.0.31
# 
DISCID=c60fe60e
DTITLE=The Rolling Stones - No Security [1998 Virgin CD]
DYEAR=1998
DGENRE=Rock
TTITLE0=Intro [Live 1998]
TTITLE1=You Got Me Rocking [Live 1998]
TTITLE2=Gimme Shelter [Live 1997]
TTITLE3=Flip The Switch [Live 1998]
TTITLE4=Memory Motel [Live 1998]
TTITLE5=Corinna [Live 1997]
TTITLE6=Saint Of Me [Live 1998]
TTITLE7=Waiting On A Friend [Live 1997]
TTITLE8=Sister Morphine [Live 1998]
TTITLE9=Live With Me [Live 1998]
TTITLE10=Respectable [Live 1998]
TTITLE11=Thief In The Night [Live 1998]
TTITLE12=The Last Time [Live 1997]
TTITLE13=Out Of Control [Live 1998]
EXTD=YEAR: 1998
EXTT0=
EXTT1=
EXTT2=
EXTT3=
EXTT4=
EXTT5=
EXTT6=
EXTT7=
EXTT8=
EXTT9=
EXTT10=
EXTT11=
EXTT12=
EXTT13=
PLAYORDER=
